<svg width="13" height="13" viewBox="0 0 13 13" fill="none" xmlns="http://www.w3.org/2000/svg">
    <path d="M1.625 3.25H2.70833H11.375" stroke="#999CA0" stroke-linecap="round" stroke-linejoin="round" />
    <path
        d="M10.2916 3.24998V10.8333C10.2916 11.1206 10.1774 11.3962 9.97428 11.5993C9.77112 11.8025 9.49557 11.9166 9.20825 11.9166H3.79159C3.50427 11.9166 3.22872 11.8025 3.02555 11.5993C2.82239 11.3962 2.70825 11.1206 2.70825 10.8333V3.24998M4.33325 3.24998V2.16665C4.33325 1.87933 4.44739 1.60378 4.65055 1.40061C4.85372 1.19745 5.12927 1.08331 5.41659 1.08331H7.58325C7.87057 1.08331 8.14612 1.19745 8.34928 1.40061C8.55245 1.60378 8.66659 1.87933 8.66659 2.16665V3.24998"
        stroke="#999CA0" stroke-linecap="round" stroke-linejoin="round" />
    <path d="M5.41675 5.95831V9.20831" stroke="#999CA0" stroke-linecap="round" stroke-linejoin="round" />
    <path d="M7.58325 5.95831V9.20831" stroke="#999CA0" stroke-linecap="round" stroke-linejoin="round" />
</svg>