<svg width="48" height="48" viewBox="0 0 48 48" fill="none" xmlns="http://www.w3.org/2000/svg">
<path d="M44 38C44 39.0609 43.5786 40.0783 42.8284 40.8284C42.0783 41.5786 41.0609 42 40 42H8C6.93913 42 5.92172 41.5786 5.17157 40.8284C4.42143 40.0783 4 39.0609 4 38V10C4 8.93913 4.42143 7.92172 5.17157 7.17157C5.92172 6.42143 6.93913 6 8 6H18L22 12H40C41.0609 12 42.0783 12.4214 42.8284 13.1716C43.5786 13.9217 44 14.9391 44 16V38Z" stroke="#4E46B4" stroke-width="4" stroke-linecap="round" stroke-linejoin="round"/>
<path d="M24 22V34" stroke="#4E46B4" stroke-width="4" stroke-linecap="round" stroke-linejoin="round"/>
<path d="M18 28H30" stroke="#4E46B4" stroke-width="4" stroke-linecap="round" stroke-linejoin="round"/>
</svg>
