<svg width="22" height="22" viewBox="0 0 22 22" fill="none" xmlns="http://www.w3.org/2000/svg">
<mask id="path-1-inside-1_111_365" fill="white">
<path d="M9.89999 0.799997C9.89999 0.358171 9.54181 5.2801e-07 9.09999 5.47322e-07L0.799999 9.12206e-07C0.358172 9.31519e-07 -1.93129e-08 0.358171 0 0.799997L0 9.09995C1.93113e-08 9.54178 0.358172 9.89995 0.8 9.89995L2.68426 9.89995C3.08233 9.89995 3.41537 9.60577 3.50712 9.21843C4.17553 6.39664 6.39667 4.17551 9.21846 3.50711C9.60581 3.41536 9.89999 3.08232 9.89999 2.68425L9.89999 0.799997Z"/>
<path d="M12.9 3.6488e-07C12.4582 3.84193e-07 12.1 0.358171 12.1 0.799996L12.1 2.68425C12.1 3.08232 12.3942 3.41536 12.7815 3.50711C15.6033 4.17551 17.8245 6.39664 18.4929 9.21843C18.5846 9.60577 18.9177 9.89995 19.3157 9.89995L21.2 9.89995C21.6418 9.89995 22 9.54178 22 9.09995L22 0.799996C22 0.35817 21.6418 -1.93165e-08 21.2 0L12.9 3.6488e-07Z"/>
<path d="M9.89999 21.1999C9.89999 21.6417 9.54181 21.9999 9.09999 21.9999L0.8 21.9999C0.358173 21.9999 7.49077e-07 21.6417 7.29764e-07 21.1999L7.29766e-07 12.8999C7.10453e-07 12.4581 0.358172 12.0999 0.8 12.0999L2.68426 12.0999C3.08233 12.0999 3.41537 12.3941 3.50712 12.7815C4.17553 15.6032 6.39667 17.8244 9.21846 18.4928C9.60581 18.5845 9.89999 18.9176 9.89999 19.3156L9.89999 21.1999Z"/>
<path d="M22 12.8C22 12.3582 21.6418 12 21.2 12L19.2816 12C18.8836 12 18.5505 12.2942 18.4591 12.6816C17.7853 15.5374 15.5374 17.7854 12.6816 18.4591C12.2942 18.5505 12 18.8836 12 19.2816L12 21.2C12 21.6418 12.3582 22 12.8 22L21.2 22C21.6418 22 22 21.6418 22 21.2L22 12.8Z"/>
</mask>
<path d="M9.89999 0.799997C9.89999 0.358171 9.54181 5.2801e-07 9.09999 5.47322e-07L0.799999 9.12206e-07C0.358172 9.31519e-07 -1.93129e-08 0.358171 0 0.799997L0 9.09995C1.93113e-08 9.54178 0.358172 9.89995 0.8 9.89995L2.68426 9.89995C3.08233 9.89995 3.41537 9.60577 3.50712 9.21843C4.17553 6.39664 6.39667 4.17551 9.21846 3.50711C9.60581 3.41536 9.89999 3.08232 9.89999 2.68425L9.89999 0.799997Z" fill="white"/>
<path d="M12.9 3.6488e-07C12.4582 3.84193e-07 12.1 0.358171 12.1 0.799996L12.1 2.68425C12.1 3.08232 12.3942 3.41536 12.7815 3.50711C15.6033 4.17551 17.8245 6.39664 18.4929 9.21843C18.5846 9.60577 18.9177 9.89995 19.3157 9.89995L21.2 9.89995C21.6418 9.89995 22 9.54178 22 9.09995L22 0.799996C22 0.35817 21.6418 -1.93165e-08 21.2 0L12.9 3.6488e-07Z" fill="white"/>
<path d="M9.89999 21.1999C9.89999 21.6417 9.54181 21.9999 9.09999 21.9999L0.8 21.9999C0.358173 21.9999 7.49077e-07 21.6417 7.29764e-07 21.1999L7.29766e-07 12.8999C7.10453e-07 12.4581 0.358172 12.0999 0.8 12.0999L2.68426 12.0999C3.08233 12.0999 3.41537 12.3941 3.50712 12.7815C4.17553 15.6032 6.39667 17.8244 9.21846 18.4928C9.60581 18.5845 9.89999 18.9176 9.89999 19.3156L9.89999 21.1999Z" fill="white"/>
<path d="M9.89999 0.799997C9.89999 0.358171 9.54181 5.2801e-07 9.09999 5.47322e-07L0.799999 9.12206e-07C0.358172 9.31519e-07 -1.93129e-08 0.358171 0 0.799997L0 9.09995C1.93113e-08 9.54178 0.358172 9.89995 0.8 9.89995L2.68426 9.89995C3.08233 9.89995 3.41537 9.60577 3.50712 9.21843C4.17553 6.39664 6.39667 4.17551 9.21846 3.50711C9.60581 3.41536 9.89999 3.08232 9.89999 2.68425L9.89999 0.799997Z" stroke="white" stroke-width="4" mask="url(#path-1-inside-1_111_365)"/>
<path d="M12.9 3.6488e-07C12.4582 3.84193e-07 12.1 0.358171 12.1 0.799996L12.1 2.68425C12.1 3.08232 12.3942 3.41536 12.7815 3.50711C15.6033 4.17551 17.8245 6.39664 18.4929 9.21843C18.5846 9.60577 18.9177 9.89995 19.3157 9.89995L21.2 9.89995C21.6418 9.89995 22 9.54178 22 9.09995L22 0.799996C22 0.35817 21.6418 -1.93165e-08 21.2 0L12.9 3.6488e-07Z" stroke="white" stroke-width="4" mask="url(#path-1-inside-1_111_365)"/>
<path d="M9.89999 21.1999C9.89999 21.6417 9.54181 21.9999 9.09999 21.9999L0.8 21.9999C0.358173 21.9999 7.49077e-07 21.6417 7.29764e-07 21.1999L7.29766e-07 12.8999C7.10453e-07 12.4581 0.358172 12.0999 0.8 12.0999L2.68426 12.0999C3.08233 12.0999 3.41537 12.3941 3.50712 12.7815C4.17553 15.6032 6.39667 17.8244 9.21846 18.4928C9.60581 18.5845 9.89999 18.9176 9.89999 19.3156L9.89999 21.1999Z" stroke="white" stroke-width="4" mask="url(#path-1-inside-1_111_365)"/>
<path d="M22 12.8C22 12.3582 21.6418 12 21.2 12L19.2816 12C18.8836 12 18.5505 12.2942 18.4591 12.6816C17.7853 15.5374 15.5374 17.7854 12.6816 18.4591C12.2942 18.5505 12 18.8836 12 19.2816L12 21.2C12 21.6418 12.3582 22 12.8 22L21.2 22C21.6418 22 22 21.6418 22 21.2L22 12.8Z" stroke="white" stroke-width="4" mask="url(#path-1-inside-1_111_365)"/>
</svg>
