<svg width="19" height="37" viewBox="0 0 19 37" fill="none" xmlns="http://www.w3.org/2000/svg">
<path d="M13.2127 5.54939C11.7109 7.05124 9.73391 6.63518 9.73391 6.63518C9.73391 6.63518 9.31785 4.65822 10.8197 3.15637C12.3215 1.65453 15.1726 1.19651 15.1726 1.19651C15.1726 1.19651 14.7146 4.04754 13.2127 5.54939Z" fill="#4E46B4"/>
<path d="M8.27626 5.40456C8.92401 7.42731 7.64911 8.99452 7.64911 8.99452C7.64911 8.99452 5.701 8.45943 5.05325 6.43668C4.4055 4.41393 5.3034 1.66949 5.3034 1.66949C5.3034 1.66949 7.62851 3.38181 8.27626 5.40456Z" fill="#4E46B4"/>
<path d="M11.6627 7.14859C9.63999 7.79635 9.1049 9.74446 9.1049 9.74446C9.1049 9.74446 10.6721 11.0194 12.6949 10.3716C14.7176 9.72385 16.4299 7.39875 16.4299 7.39875C16.4299 7.39875 13.6855 6.50084 11.6627 7.14859Z" fill="#4E46B4"/>
<path d="M6.0857 10.865C7.14767 12.7044 6.23412 14.5063 6.23412 14.5063C6.23412 14.5063 4.21684 14.3965 3.15487 12.5572C2.0929 10.7178 2.38839 7.84535 2.38839 7.84535C2.38839 7.84535 5.02374 9.02566 6.0857 10.865Z" fill="#4E46B4"/>
<path d="M9.76494 11.8509C7.92556 12.9128 7.81577 14.9301 7.81577 14.9301C7.81577 14.9301 9.61768 15.8437 11.4571 14.7817C13.2964 13.7197 14.4768 11.0844 14.4768 11.0844C14.4768 11.0844 11.6043 10.7889 9.76494 11.8509Z" fill="#4E46B4"/>
<path d="M5.54939 16.6164C7.05124 18.1182 6.63518 20.0952 6.63518 20.0952C6.63518 20.0952 4.65822 20.5113 3.15637 19.0094C1.65453 17.5076 1.19651 14.6565 1.19651 14.6565C1.19651 14.6565 4.04754 15.1145 5.54939 16.6164Z" fill="#4E46B4"/>
<path d="M9.35845 16.6164C7.8566 18.1182 8.27265 20.0952 8.27265 20.0952C8.27265 20.0952 10.2496 20.5113 11.7515 19.0094C13.2533 17.5076 13.7113 14.6565 13.7113 14.6565C13.7113 14.6565 10.8603 15.1145 9.35845 16.6164Z" fill="#4E46B4"/>
<path d="M6.48085 22.3108C8.32023 23.3728 8.43002 25.3901 8.43002 25.3901C8.43002 25.3901 6.62811 26.3036 4.78873 25.2417C2.94935 24.1797 1.76903 21.5443 1.76903 21.5443C1.76903 21.5443 4.64146 21.2489 6.48085 22.3108Z" fill="#4E46B4"/>
<path d="M10.1601 21.325C9.09818 23.1644 10.0117 24.9663 10.0117 24.9663C10.0117 24.9663 12.029 24.8565 13.091 23.0171C14.1529 21.1777 13.8575 18.3053 13.8575 18.3053C13.8575 18.3053 11.2221 19.4856 10.1601 21.325Z" fill="#4E46B4"/>
<path d="M8.87949 27.9831C10.9311 28.5328 11.5592 30.4529 11.5592 30.4529C11.5592 30.4529 10.0551 31.8017 8.00358 31.252C5.95202 30.7023 4.12985 28.4622 4.12985 28.4622C4.12985 28.4622 6.82792 27.4334 8.87949 27.9831Z" fill="#4E46B4"/>
<path d="M12.4638 33.1573C14.5877 33.1573 15.6914 34.8494 15.6914 34.8494C15.6914 34.8494 14.5877 36.5415 12.4638 36.5415C10.3399 36.5415 8 34.8494 8 34.8494C8 34.8494 10.3399 33.1573 12.4638 33.1573Z" fill="#4E46B4"/>
<path d="M12.1783 26.0784C11.6286 28.1299 12.9774 29.634 12.9774 29.634C12.9774 29.634 14.8975 29.0058 15.4472 26.9543C15.9969 24.9027 14.9681 22.2046 14.9681 22.2046C14.9681 22.2046 12.728 24.0268 12.1783 26.0784Z" fill="#4E46B4"/>
<path d="M15.1573 30.4638C15.1573 32.5877 16.8494 33.6914 16.8494 33.6914C16.8494 33.6914 18.5415 32.5877 18.5415 30.4638C18.5415 28.3399 16.8494 26 16.8494 26C16.8494 26 15.1573 28.3399 15.1573 30.4638Z" fill="#4E46B4"/>
</svg>
