<svg width="19" height="37" viewBox="0 0 19 37" fill="none" xmlns="http://www.w3.org/2000/svg">
<path d="M5.32879 5.54939C6.83064 7.05124 8.8076 6.63518 8.8076 6.63518C8.8076 6.63518 9.22365 4.65822 7.7218 3.15637C6.21996 1.65453 3.36892 1.19651 3.36892 1.19651C3.36892 1.19651 3.82694 4.04754 5.32879 5.54939Z" fill="#4E46B4"/>
<path d="M10.2652 5.40456C9.6175 7.42731 10.8924 8.99452 10.8924 8.99452C10.8924 8.99452 12.8405 8.45943 13.4883 6.43668C14.136 4.41393 13.2381 1.66949 13.2381 1.66949C13.2381 1.66949 10.913 3.38181 10.2652 5.40456Z" fill="#4E46B4"/>
<path d="M6.87877 7.14859C8.90152 7.79635 9.4366 9.74446 9.4366 9.74446C9.4366 9.74446 7.8694 11.0194 5.84665 10.3716C3.8239 9.72385 2.11158 7.39875 2.11158 7.39875C2.11158 7.39875 4.85602 6.50084 6.87877 7.14859Z" fill="#4E46B4"/>
<path d="M12.4558 10.865C11.3938 12.7044 12.3074 14.5063 12.3074 14.5063C12.3074 14.5063 14.3247 14.3965 15.3866 12.5572C16.4486 10.7178 16.1531 7.84535 16.1531 7.84535C16.1531 7.84535 13.5178 9.02566 12.4558 10.865Z" fill="#4E46B4"/>
<path d="M8.77656 11.8509C10.6159 12.9128 10.7257 14.9301 10.7257 14.9301C10.7257 14.9301 8.92382 15.8437 7.08444 14.7817C5.24506 13.7197 4.06475 11.0844 4.06475 11.0844C4.06475 11.0844 6.93718 10.7889 8.77656 11.8509Z" fill="#4E46B4"/>
<path d="M12.9921 16.6164C11.4903 18.1182 11.9063 20.0952 11.9063 20.0952C11.9063 20.0952 13.8833 20.5113 15.3851 19.0094C16.887 17.5076 17.345 14.6565 17.345 14.6565C17.345 14.6565 14.494 15.1145 12.9921 16.6164Z" fill="#4E46B4"/>
<path d="M9.18306 16.6164C10.6849 18.1182 10.2689 20.0952 10.2689 20.0952C10.2689 20.0952 8.29189 20.5113 6.79004 19.0094C5.28819 17.5076 4.83018 14.6565 4.83018 14.6565C4.83018 14.6565 7.68121 15.1145 9.18306 16.6164Z" fill="#4E46B4"/>
<path d="M12.0607 22.3108C10.2213 23.3728 10.1115 25.3901 10.1115 25.3901C10.1115 25.3901 11.9134 26.3036 13.7528 25.2417C15.5922 24.1797 16.7725 21.5443 16.7725 21.5443C16.7725 21.5443 13.9 21.2489 12.0607 22.3108Z" fill="#4E46B4"/>
<path d="M8.38136 21.325C9.44332 23.1644 8.52977 24.9663 8.52977 24.9663C8.52977 24.9663 6.51249 24.8565 5.45052 23.0171C4.38855 21.1777 4.68405 18.3053 4.68405 18.3053C4.68405 18.3053 7.31939 19.4856 8.38136 21.325Z" fill="#4E46B4"/>
<path d="M9.66202 27.9831C7.61045 28.5328 6.98229 30.4529 6.98229 30.4529C6.98229 30.4529 8.48636 31.8017 10.5379 31.252C12.5895 30.7023 14.4117 28.4622 14.4117 28.4622C14.4117 28.4622 11.7136 27.4334 9.66202 27.9831Z" fill="#4E46B4"/>
<path d="M6.07772 33.1573C3.95378 33.1573 2.85005 34.8494 2.85005 34.8494C2.85005 34.8494 3.95378 36.5415 6.07772 36.5415C8.20165 36.5415 10.5415 34.8494 10.5415 34.8494C10.5415 34.8494 8.20165 33.1573 6.07772 33.1573Z" fill="#4E46B4"/>
<path d="M6.3632 26.0784C6.91292 28.1299 5.56412 29.634 5.56412 29.634C5.56412 29.634 3.64399 29.0058 3.09428 26.9543C2.54456 24.9027 3.57343 22.2046 3.57343 22.2046C3.57343 22.2046 5.81349 24.0268 6.3632 26.0784Z" fill="#4E46B4"/>
<path d="M3.38424 30.4638C3.38424 32.5877 1.69212 33.6914 1.69212 33.6914C1.69212 33.6914 -3.41894e-08 32.5877 -2.31664e-08 30.4638C-1.21435e-08 28.3399 1.69212 26 1.69212 26C1.69212 26 3.38424 28.3399 3.38424 30.4638Z" fill="#4E46B4"/>
</svg>
