<svg width="13" height="13" viewBox="0 0 13 13" fill="none" xmlns="http://www.w3.org/2000/svg">
<path d="M1.625 3.25H2.70833H11.375" stroke="#999CA0" stroke-linecap="round" stroke-linejoin="round"/>
<path d="M10.2918 3.25016V10.8335C10.2918 11.1208 10.1777 11.3964 9.97453 11.5995C9.77136 11.8027 9.49581 11.9168 9.2085 11.9168H3.79183C3.50451 11.9168 3.22896 11.8027 3.0258 11.5995C2.82263 11.3964 2.7085 11.1208 2.7085 10.8335V3.25016M4.3335 3.25016V2.16683C4.3335 1.87951 4.44763 1.60396 4.6508 1.4008C4.85396 1.19763 5.12951 1.0835 5.41683 1.0835H7.5835C7.87081 1.0835 8.14636 1.19763 8.34953 1.4008C8.55269 1.60396 8.66683 1.87951 8.66683 2.16683V3.25016" stroke="#999CA0" stroke-linecap="round" stroke-linejoin="round"/>
<path d="M5.4165 5.9585V9.2085" stroke="#999CA0" stroke-linecap="round" stroke-linejoin="round"/>
<path d="M7.5835 5.9585V9.2085" stroke="#999CA0" stroke-linecap="round" stroke-linejoin="round"/>
</svg>
