<svg width="24" height="24" viewBox="0 0 24 24" fill="none" xmlns="http://www.w3.org/2000/svg">
<path d="M3 6H5H21" stroke="#444444" stroke-width="2" stroke-linecap="round" stroke-linejoin="round"/>
<path d="M19 6V20C19 20.5304 18.7893 21.0391 18.4142 21.4142C18.0391 21.7893 17.5304 22 17 22H7C6.46957 22 5.96086 21.7893 5.58579 21.4142C5.21071 21.0391 5 20.5304 5 20V6M8 6V4C8 3.46957 8.21071 2.96086 8.58579 2.58579C8.96086 2.21071 9.46957 2 10 2H14C14.5304 2 15.0391 2.21071 15.4142 2.58579C15.7893 2.96086 16 3.46957 16 4V6" stroke="#444444" stroke-width="2" stroke-linecap="round" stroke-linejoin="round"/>
<path d="M13.7323 16V16C14.5021 16 14.9832 15.1667 14.5983 14.5V14.5L14.1653 13.75L13.7323 13H14.5983M12.8663 11.5V11.5C12.4814 10.8333 11.5191 10.8333 11.1342 11.5V11.5L10.7012 12.25L10.2682 13L9.83517 12.25M9.40216 14.5V14.5C9.01726 15.1667 9.49838 16 10.2682 16V16H11.1342H12.0002L11.567 16.75" stroke="#444444" stroke-linecap="round" stroke-linejoin="round"/>
</svg>
