<svg width="157" height="37" viewBox="0 0 157 37" fill="none" xmlns="http://www.w3.org/2000/svg">
    <path d="M13.2127 5.54939C11.7109 7.05124 9.73391 6.63518 9.73391 6.63518C9.73391 6.63518 9.31785 4.65822 10.8197 3.15637C12.3215 1.65453 15.1726 1.19651 15.1726 1.19651C15.1726 1.19651 14.7146 4.04754 13.2127 5.54939Z" fill="#4E46B4"/>
    <path d="M8.27626 5.40469C8.92401 7.42744 7.64911 8.99464 7.64911 8.99464C7.64911 8.99464 5.701 8.45955 5.05325 6.4368C4.4055 4.41405 5.3034 1.66961 5.3034 1.66961C5.3034 1.66961 7.62851 3.38194 8.27626 5.40469Z" fill="#4E46B4"/>
    <path d="M11.6628 7.14841C9.64005 7.79616 9.10496 9.74428 9.10496 9.74428C9.10496 9.74428 10.6722 11.0192 12.6949 10.3714C14.7177 9.72367 16.43 7.39857 16.43 7.39857C16.43 7.39857 13.6855 6.50066 11.6628 7.14841Z" fill="#4E46B4"/>
    <path d="M6.08558 10.8648C7.14755 12.7042 6.23399 14.5061 6.23399 14.5061C6.23399 14.5061 4.21671 14.3963 3.15475 12.5569C2.09278 10.7175 2.38827 7.8451 2.38827 7.8451C2.38827 7.8451 5.02361 9.02542 6.08558 10.8648Z" fill="#4E46B4"/>
    <path d="M9.76488 11.8507C7.9255 12.9127 7.8157 14.93 7.8157 14.93C7.8157 14.93 9.61762 15.8435 11.457 14.7816C13.2964 13.7196 14.4767 11.0843 14.4767 11.0843C14.4767 11.0843 11.6043 10.7888 9.76488 11.8507Z" fill="#4E46B4"/>
    <path d="M5.54939 16.6163C7.05124 18.1181 6.63518 20.0951 6.63518 20.0951C6.63518 20.0951 4.65822 20.5111 3.15637 19.0093C1.65453 17.5074 1.19651 14.6564 1.19651 14.6564C1.19651 14.6564 4.04754 15.1144 5.54939 16.6163Z" fill="#4E46B4"/>
    <path d="M9.35832 16.6164C7.85647 18.1182 8.27253 20.0952 8.27253 20.0952C8.27253 20.0952 10.2495 20.5113 11.7513 19.0094C13.2532 17.5076 13.7112 14.6565 13.7112 14.6565C13.7112 14.6565 10.8602 15.1145 9.35832 16.6164Z" fill="#4E46B4"/>
    <path d="M6.48072 22.3111C8.32011 23.373 8.4299 25.3903 8.4299 25.3903C8.4299 25.3903 6.62799 26.3039 4.7886 25.2419C2.94922 24.1799 1.76891 21.5446 1.76891 21.5446C1.76891 21.5446 4.64134 21.2491 6.48072 22.3111Z" fill="#4E46B4"/>
    <path d="M10.16 21.3252C9.09806 23.1646 10.0116 24.9665 10.0116 24.9665C10.0116 24.9665 12.0289 24.8567 13.0909 23.0174C14.1528 21.178 13.8573 18.3056 13.8573 18.3056C13.8573 18.3056 11.222 19.4859 10.16 21.3252Z" fill="#4E46B4"/>
    <path d="M8.87949 27.9828C10.9311 28.5325 11.5592 30.4527 11.5592 30.4527C11.5592 30.4527 10.0551 31.8015 8.00358 31.2517C5.95202 30.702 4.12985 28.462 4.12985 28.462C4.12985 28.462 6.82792 27.4331 8.87949 27.9828Z" fill="#4E46B4"/>
    <path d="M12.4638 33.1572C14.5877 33.1572 15.6914 34.8493 15.6914 34.8493C15.6914 34.8493 14.5877 36.5414 12.4638 36.5414C10.3399 36.5414 8 34.8493 8 34.8493C8 34.8493 10.3399 33.1572 12.4638 33.1572Z" fill="#4E46B4"/>
    <path d="M12.1783 26.0784C11.6286 28.1299 12.9774 29.634 12.9774 29.634C12.9774 29.634 14.8975 29.0058 15.4472 26.9543C15.9969 24.9027 14.9681 22.2046 14.9681 22.2046C14.9681 22.2046 12.728 24.0268 12.1783 26.0784Z" fill="#4E46B4"/>
    <path d="M15.1573 30.4638C15.1573 32.5877 16.8494 33.6914 16.8494 33.6914C16.8494 33.6914 18.5415 32.5877 18.5415 30.4638C18.5415 28.3399 16.8494 26 16.8494 26C16.8494 26 15.1573 28.3399 15.1573 30.4638Z" fill="#4E46B4"/>
    <path d="M143.329 5.54939C144.831 7.05124 146.808 6.63518 146.808 6.63518C146.808 6.63518 147.224 4.65822 145.722 3.15637C144.22 1.65453 141.369 1.19651 141.369 1.19651C141.369 1.19651 141.827 4.04754 143.329 5.54939Z" fill="#4E46B4"/>
    <path d="M148.265 5.40469C147.617 7.42744 148.892 8.99464 148.892 8.99464C148.892 8.99464 150.841 8.45955 151.488 6.4368C152.136 4.41405 151.238 1.66961 151.238 1.66961C151.238 1.66961 148.913 3.38194 148.265 5.40469Z" fill="#4E46B4"/>
    <path d="M144.879 7.14841C146.901 7.79616 147.437 9.74428 147.437 9.74428C147.437 9.74428 145.869 11.0192 143.847 10.3714C141.824 9.72367 140.112 7.39857 140.112 7.39857C140.112 7.39857 142.856 6.50066 144.879 7.14841Z" fill="#4E46B4"/>
    <path d="M150.456 10.8648C149.394 12.7042 150.308 14.5061 150.308 14.5061C150.308 14.5061 152.325 14.3963 153.387 12.5569C154.449 10.7175 154.153 7.8451 154.153 7.8451C154.153 7.8451 151.518 9.02542 150.456 10.8648Z" fill="#4E46B4"/>
    <path d="M146.777 11.8507C148.616 12.9127 148.726 14.93 148.726 14.93C148.726 14.93 146.924 15.8435 145.085 14.7816C143.245 13.7196 142.065 11.0843 142.065 11.0843C142.065 11.0843 144.937 10.7888 146.777 11.8507Z" fill="#4E46B4"/>
    <path d="M150.992 16.6163C149.49 18.1181 149.906 20.0951 149.906 20.0951C149.906 20.0951 151.883 20.5111 153.385 19.0093C154.887 17.5074 155.345 14.6564 155.345 14.6564C155.345 14.6564 152.494 15.1144 150.992 16.6163Z" fill="#4E46B4"/>
    <path d="M147.183 16.6164C148.685 18.1182 148.269 20.0952 148.269 20.0952C148.269 20.0952 146.292 20.5113 144.79 19.0094C143.288 17.5076 142.83 14.6565 142.83 14.6565C142.83 14.6565 145.681 15.1145 147.183 16.6164Z" fill="#4E46B4"/>
    <path d="M150.061 22.3111C148.221 23.373 148.112 25.3903 148.112 25.3903C148.112 25.3903 149.914 26.3039 151.753 25.2419C153.592 24.1799 154.773 21.5446 154.773 21.5446C154.773 21.5446 151.9 21.2491 150.061 22.3111Z" fill="#4E46B4"/>
    <path d="M146.381 21.3252C147.443 23.1646 146.53 24.9665 146.53 24.9665C146.53 24.9665 144.513 24.8567 143.451 23.0174C142.389 21.178 142.684 18.3056 142.684 18.3056C142.684 18.3056 145.32 19.4859 146.381 21.3252Z" fill="#4E46B4"/>
    <path d="M147.662 27.9828C145.61 28.5325 144.982 30.4527 144.982 30.4527C144.982 30.4527 146.486 31.8015 148.538 31.2517C150.589 30.702 152.412 28.462 152.412 28.462C152.412 28.462 149.714 27.4331 147.662 27.9828Z" fill="#4E46B4"/>
    <path d="M144.078 33.1572C141.954 33.1572 140.85 34.8493 140.85 34.8493C140.85 34.8493 141.954 36.5414 144.078 36.5414C146.202 36.5414 148.542 34.8493 148.542 34.8493C148.542 34.8493 146.202 33.1572 144.078 33.1572Z" fill="#4E46B4"/>
    <path d="M144.363 26.0784C144.913 28.1299 143.564 29.634 143.564 29.634C143.564 29.634 141.644 29.0058 141.094 26.9543C140.545 24.9027 141.573 22.2046 141.573 22.2046C141.573 22.2046 143.813 24.0268 144.363 26.0784Z" fill="#4E46B4"/>
    <path d="M141.384 30.4638C141.384 32.5877 139.692 33.6914 139.692 33.6914C139.692 33.6914 138 32.5877 138 30.4638C138 28.3399 139.692 26 139.692 26C139.692 26 141.384 28.3399 141.384 30.4638Z" fill="#4E46B4"/>
    </svg>
    